<svg width="51" height="49" viewBox="0 0 51 49" fill="none" xmlns="http://www.w3.org/2000/svg">
<path d="M26.2724 9.80005C25.3291 9.80005 24.4797 10.2532 24.1248 10.946L14.0793 30.5459C13.5974 31.4862 14.1683 32.5579 15.3545 32.9398C16.5406 33.3218 17.8928 32.8692 18.3747 31.9292L20.9267 26.95H31.6184L34.1703 31.9292C34.6522 32.8692 36.0041 33.3218 37.1904 32.9398C38.3767 32.5579 38.9476 31.4862 38.4657 30.5459L28.4203 10.946C28.0651 10.2532 27.2157 9.80005 26.2724 9.80005ZM22.8103 23.275L26.2724 16.5196L29.7348 23.275H22.8103Z" fill="#858995"/>
<path d="M0 6.125C0 2.74226 3.45962 0 7.72727 0H43.2727C47.5403 0 51 2.74226 51 6.125V41.0375C51 42.0523 49.9621 42.875 48.6818 42.875H4.63636C4.63636 44.2281 6.02023 45.325 7.72727 45.325H48.6818C49.9621 45.325 51 46.1477 51 47.1625C51 48.1773 49.9621 49 48.6818 49H7.72727C3.45962 49 0 46.2577 0 42.875V6.125ZM4.63636 39.2H46.3636V6.125C46.3636 4.77191 44.9798 3.675 43.2727 3.675H7.72727C6.02023 3.675 4.63636 4.77191 4.63636 6.125V39.2Z" fill="#858995"/>
</svg>
